# xmcd CD database file
#
# Track frame offsets:
#	150
#	11767
#	24067
#	37372
#	51487
#	64490
#	78922
#	91395
#	104460
#	116295
#	128185
#	139312
#
# Disc length: 2021 seconds
#
# Revision: 1
# Processed by: cddbd v1.4PL0 Copyright (c) Steve Scherf et al.
# Submitted via: Feurio! 1.66 - http://www.feurio.com
#
DISCID=a607e30c
DTITLE=Various Artist - Soul Classics, Best of the 60's
DYEAR=1997
DGENRE=Soul
TTITLE0=The Temptations - Ain't Too Proud To Beg
TTITLE1=Jackie Wilson - Lonely Teardrops
TTITLE2=Tyrone Davis - Turn Back The Hands Of Time
TTITLE3=Diana Ross and the Supremes and the Temptations - I'm Gonna Make You 
TTITLE3=Love Me
TTITLE4=Stevie Wonder - My Cherie Amour
TTITLE5=James Brown - Ain't It Funny Now
TTITLE6=Four Tops - Can't Help Myself
TTITLE7=The Contours - Do You LoveMe
TTITLE8=Jerry Butler - Only The Strong Survive
TTITLE9=The Platters - Only Youy
TTITLE10=Patti Labelle - I Sold My Heart To The Junkman
TTITLE11=Dinah Washington and Brook Benton - Baby, You Got What It Takes
EXTD=YEAR: 1997
EXTT0=
EXTT1=
EXTT2=
EXTT3=
EXTT4=
EXTT5=
EXTT6=
EXTT7=
EXTT8=
EXTT9=
EXTT10=
EXTT11=
PLAYORDER=
